<?xml version="1.0" encoding="UTF-8" standalone="no"?>
<!DOCTYPE svg PUBLIC "-//W3C//DTD SVG 1.1//EN"
 "http://www.w3.org/Graphics/SVG/1.1/DTD/svg11.dtd">
<!-- Generated by graphviz version 2.43.0 (0)
 -->
<!-- Title: Democritus architecture Pages: 1 -->
<svg width="289pt" height="542pt"
 viewBox="0.00 0.00 289.00 542.00" xmlns="http://www.w3.org/2000/svg" xmlns:xlink="http://www.w3.org/1999/xlink">
<g id="graph0" class="graph" transform="scale(1 1) rotate(0) translate(4 538)">
<title>Democritus architecture</title>
<polygon fill="white" stroke="transparent" points="-4,4 -4,-538 285,-538 285,4 -4,4"/>
<!-- 0 -->
<g id="node1" class="node">
<title>0</title>
<ellipse fill="none" stroke="black" cx="140.5" cy="-516" rx="51.92" ry="18"/>
<text text-anchor="middle" x="140.5" y="-512.9" font-family="Times,serif" font-size="12.00">Grid image</text>
</g>
<!-- 1 -->
<g id="node2" class="node">
<title>1</title>
<polygon fill="lightpink" stroke="black" points="281,-451 0,-451 0,-415 281,-415 281,-451"/>
<text text-anchor="middle" x="140.5" y="-429.9" font-family="Times,serif" font-size="12.00">Convolutional layer, 13 x 13 kernel, stride 3</text>
</g>
<!-- 0&#45;&gt;1 -->
<g id="edge1" class="edge">
<title>0&#45;&gt;1</title>
<path fill="none" stroke="black" d="M140.5,-497.82C140.5,-486.33 140.5,-471.04 140.5,-458.31"/>
<polygon fill="black" stroke="black" points="142.95,-458.15 140.5,-451.15 138.05,-458.15 142.95,-458.15"/>
<text text-anchor="middle" x="172.5" y="-472" font-family="Times,serif" font-size="10.00"> &#160;1 x &#160;94 x 94</text>
</g>
<!-- 2 -->
<g id="node3" class="node">
<title>2</title>
<polygon fill="#e5e5e5" stroke="black" points="84.91,-344.44 140.5,-332 196.09,-344.44 196.04,-364.56 84.96,-364.56 84.91,-344.44"/>
<text text-anchor="middle" x="140.5" y="-346.9" font-family="Times,serif" font-size="12.00">Max pool</text>
</g>
<!-- 1&#45;&gt;2 -->
<g id="edge2" class="edge">
<title>1&#45;&gt;2</title>
<path fill="none" stroke="black" d="M140.5,-414.82C140.5,-402.32 140.5,-385.33 140.5,-372.02"/>
<polygon fill="black" stroke="black" points="142.95,-371.67 140.5,-364.67 138.05,-371.67 142.95,-371.67"/>
<text text-anchor="middle" x="175.5" y="-389" font-family="Times,serif" font-size="10.00"> &#160;40 x &#160;27 x 27</text>
</g>
<!-- 3 -->
<g id="node4" class="node">
<title>3</title>
<polygon fill="aquamarine" stroke="black" points="210.5,-285 70.5,-285 70.5,-249 210.5,-249 210.5,-285"/>
<text text-anchor="middle" x="140.5" y="-263.9" font-family="Times,serif" font-size="12.00">Linear layer + ReLu</text>
</g>
<!-- 2&#45;&gt;3 -->
<g id="edge3" class="edge">
<title>2&#45;&gt;3</title>
<path fill="none" stroke="black" d="M140.5,-331.82C140.5,-320.33 140.5,-305.04 140.5,-292.31"/>
<polygon fill="black" stroke="black" points="142.95,-292.15 140.5,-285.15 138.05,-292.15 142.95,-292.15"/>
<text text-anchor="middle" x="150" y="-306" font-family="Times,serif" font-size="10.00"> &#160;40</text>
</g>
<!-- 4 -->
<g id="node5" class="node">
<title>4</title>
<polygon fill="aquamarine" stroke="black" points="210.5,-202 70.5,-202 70.5,-166 210.5,-166 210.5,-202"/>
<text text-anchor="middle" x="140.5" y="-180.9" font-family="Times,serif" font-size="12.00">Linear layer + ReLu</text>
</g>
<!-- 3&#45;&gt;4 -->
<g id="edge4" class="edge">
<title>3&#45;&gt;4</title>
<path fill="none" stroke="black" d="M140.5,-248.82C140.5,-237.33 140.5,-222.04 140.5,-209.31"/>
<polygon fill="black" stroke="black" points="142.95,-209.15 140.5,-202.15 138.05,-209.15 142.95,-209.15"/>
<text text-anchor="middle" x="147" y="-223" font-family="Times,serif" font-size="10.00"> &#160;4</text>
</g>
<!-- 5 -->
<g id="node6" class="node">
<title>5</title>
<polygon fill="aquamarine" stroke="black" points="186,-119 95,-119 95,-83 186,-83 186,-119"/>
<text text-anchor="middle" x="140.5" y="-97.9" font-family="Times,serif" font-size="12.00">Linear layer</text>
</g>
<!-- 4&#45;&gt;5 -->
<g id="edge5" class="edge">
<title>4&#45;&gt;5</title>
<path fill="none" stroke="black" d="M140.5,-165.82C140.5,-154.33 140.5,-139.04 140.5,-126.31"/>
<polygon fill="black" stroke="black" points="142.95,-126.15 140.5,-119.15 138.05,-126.15 142.95,-126.15"/>
<text text-anchor="middle" x="147" y="-140" font-family="Times,serif" font-size="10.00"> &#160;2</text>
</g>
<!-- 6 -->
<g id="node7" class="node">
<title>6</title>
<ellipse fill="none" stroke="black" cx="140.5" cy="-18" rx="35.91" ry="18"/>
<text text-anchor="middle" x="140.5" y="-14.9" font-family="Times,serif" font-size="12.00">Output</text>
</g>
<!-- 5&#45;&gt;6 -->
<g id="edge6" class="edge">
<title>5&#45;&gt;6</title>
<path fill="none" stroke="black" d="M140.5,-82.82C140.5,-71.33 140.5,-56.04 140.5,-43.31"/>
<polygon fill="black" stroke="black" points="142.95,-43.15 140.5,-36.15 138.05,-43.15 142.95,-43.15"/>
<text text-anchor="middle" x="147" y="-57" font-family="Times,serif" font-size="10.00"> &#160;1</text>
</g>
</g>
</svg>
